
<!-- <?xml version="1.0" encoding="UTF-8"?> -->

<svg version="1.1" 
xmlns="http://www.w3.org/2000/svg" 
xmlns:xlink="http://www.w3.org/1999/xlink">
    <symbol id="facebook" viewBox="0 0 24 24">
        <g>
            <path d="m6.812 13.937h2.518v9.312c0 .414.335.75.75.75l4.007.001c.415 0 .75-.337.75-.75v-9.312h2.387c.378 0 .697-.282.744-.657l.498-4c.056-.446-.293-.843-.744-.843h-2.885c.113-2.471-.435-3.202 1.172-3.202 1.088-.13 2.804.421 2.804-.75v-3.577c0-.375-.277-.692-.648-.743-.314-.043-1.555-.166-3.094-.166-7.01 0-5.567 7.772-5.74 8.437h-2.519c-.414 0-.75.336-.75.75v4c0 .414.336.75.75.75zm.75-3.999h2.518c.414 0 .75-.336.75-.75v-3.151c0-2.883 1.545-4.536 4.24-4.536.878 0 1.686.043 2.242.087v2.149c-.402.205-3.976-.884-3.976 2.697v2.755c0 .414.336.75.75.75h2.786l-.312 2.5h-2.474c-.414 0-.75.336-.75.75v9.311h-2.505v-9.312c0-.414-.336-.75-.75-.75h-2.519z"/>
        </g>
    </symbol>

    <symbol id="instagram" viewBox="0 0 24 24">
        <g>
            <path d="m4.75 24h14.5c2.619 0 4.75-2.131 4.75-4.75v-14.5c0-2.619-2.131-4.75-4.75-4.75h-14.5c-2.619 0-4.75 2.131-4.75 4.75v14.5c0 2.619 2.131 4.75 4.75 4.75zm-3.25-19.25c0-1.792 1.458-3.25 3.25-3.25h14.5c1.792 0 3.25 1.458 3.25 3.25v14.5c0 1.792-1.458 3.25-3.25 3.25h-14.5c-1.792 0-3.25-1.458-3.25-3.25z"/>
            <path d="m12 18.13c3.38 0 6.13-2.75 6.13-6.13s-2.75-6.13-6.13-6.13-6.13 2.75-6.13 6.13 2.75 6.13 6.13 6.13zm0-10.76c2.553 0 4.63 2.077 4.63 4.63s-2.077 4.63-4.63 4.63-4.63-2.077-4.63-4.63 2.077-4.63 4.63-4.63z"/>
            <path d="m18.358 7.362c.986 0 1.729-.74 1.729-1.721 0-1.023-.782-1.721-1.728-1.721-.986 0-1.729.74-1.729 1.721 0 1.021.778 1.721 1.728 1.721zm.177-1.886c.316.279-.405.618-.405.166 0-.27.367-.2.405-.166z"/>
        </g>
    </symbol>

    <symbol id='vk' viewBox="0 0 24 24">
            <g>
                <path d="m12.145 19.5c3.472 0 2.234-2.198 2.502-2.83-.004-.472-.008-.926.008-1.202.22.062.739.325 1.811 1.367 1.655 1.67 2.078 2.665 3.415 2.665h2.461c.78 0 1.186-.323 1.389-.594.196-.262.388-.722.178-1.438-.549-1.724-3.751-4.701-3.95-5.015.03-.058.078-.135.103-.175h-.002c.632-.835 3.044-4.449 3.399-5.895.001-.002.002-.005.002-.008.192-.66.016-1.088-.166-1.33-.274-.362-.71-.545-1.299-.545h-2.461c-.824 0-1.449.415-1.765 1.172-.529 1.345-2.015 4.111-3.129 5.09-.034-1.387-.011-2.446.007-3.233.036-1.535.152-3.029-1.441-3.029h-3.868c-.998 0-1.953 1.09-.919 2.384.904 1.134.325 1.766.52 4.912-.76-.815-2.112-3.016-3.068-5.829-.268-.761-.674-1.466-1.817-1.466h-2.461c-.998 0-1.594.544-1.594 1.455 0 2.046 4.529 13.544 12.145 13.544zm-8.09-13.499c.217 0 .239 0 .4.457.979 2.883 3.175 7.149 4.779 7.149 1.205 0 1.205-1.235 1.205-1.7l-.001-3.702c-.066-1.225-.512-1.835-.805-2.205l3.508.004c.002.017-.02 4.095.01 5.083 0 1.403 1.114 2.207 2.853.447 1.835-2.071 3.104-5.167 3.155-5.293.075-.18.14-.241.376-.241h2.461.01c-.001.003-.001.006-.002.009-.225 1.05-2.446 4.396-3.189 5.435-.012.016-.023.033-.034.05-.327.534-.593 1.124.045 1.954h.001c.058.07.209.234.429.462.684.706 3.03 3.12 3.238 4.08-.138.022-.288.006-2.613.011-.495 0-.882-.74-2.359-2.23-1.328-1.292-2.19-1.82-2.975-1.82-1.524 0-1.413 1.237-1.399 2.733.005 1.622-.005 1.109.006 1.211-.089.035-.344.105-1.009.105-6.345 0-10.477-10.071-10.636-11.996.055-.005.812-.002 2.546-.003z"/>
            </g>
    </symbol>
</svg>